<svg
  xmlns="http://www.w3.org/2000/svg"
  width="160"
  height="160"
  viewBox="0 0 160 160"
  fill="none"
>
<path
    d="M144.211 109.672H51.1638L55.8357 100.156L133.461 100.016C136.086 100.016 138.336 98.1406 138.804 95.5469L149.554 35.375C149.836 33.7969 149.414 32.1719 148.383 30.9375C147.873 30.33 147.237 29.8407 146.519 29.5034C145.802 29.1661 145.019 28.989 144.226 28.9844L45.4763 28.6562L44.6326 24.6875C44.1013 22.1562 41.8201 20.3125 39.2263 20.3125H15.0857C13.6229 20.3125 12.2199 20.8936 11.1856 21.928C10.1512 22.9624 9.57007 24.3653 9.57007 25.8281C9.57007 27.291 10.1512 28.6939 11.1856 29.7283C12.2199 30.7626 13.6229 31.3438 15.0857 31.3438H34.7576L38.4451 48.875L47.5232 92.8281L35.8357 111.906C35.2287 112.725 34.8632 113.698 34.7803 114.714C34.6975 115.73 34.9007 116.75 35.3669 117.656C36.3044 119.516 38.1951 120.688 40.2888 120.688H50.1013C48.0094 123.466 46.8795 126.85 46.8826 130.328C46.8826 139.172 54.0701 146.359 62.9138 146.359C71.7576 146.359 78.9451 139.172 78.9451 130.328C78.9451 126.844 77.7888 123.453 75.7263 120.688H100.898C98.8063 123.466 97.6764 126.85 97.6794 130.328C97.6794 139.172 104.867 146.359 113.711 146.359C122.554 146.359 129.742 139.172 129.742 130.328C129.742 126.844 128.586 123.453 126.523 120.688H144.226C147.258 120.688 149.742 118.219 149.742 115.172C149.733 113.711 149.146 112.312 148.11 111.282C147.074 110.251 145.672 109.673 144.211 109.672V109.672ZM47.7732 39.5312L137.742 39.8281L128.929 89.1719L58.2576 89.2969L47.7732 39.5312ZM62.9138 135.266C60.1951 135.266 57.9763 133.047 57.9763 130.328C57.9763 127.609 60.1951 125.391 62.9138 125.391C65.6326 125.391 67.8513 127.609 67.8513 130.328C67.8513 131.638 67.3311 132.894 66.4052 133.819C65.4792 134.745 64.2233 135.266 62.9138 135.266V135.266ZM113.711 135.266C110.992 135.266 108.773 133.047 108.773 130.328C108.773 127.609 110.992 125.391 113.711 125.391C116.429 125.391 118.648 127.609 118.648 130.328C118.648 131.638 118.128 132.894 117.202 133.819C116.276 134.745 115.02 135.266 113.711 135.266V135.266Z"
    fill="white"
  />
</svg>
